<svg width="32" height="31" viewBox="0 0 32 31" fill="none" xmlns="http://www.w3.org/2000/svg">
  <circle cx="16.0009" cy="15.4667" r="15.4667" fill="#1DA1F2" />
  <path fill-rule="evenodd" clip-rule="evenodd" d="M24.2748 10.1421C23.6664 10.4124 23.0116 10.5944 22.3248 10.6766C23.0259 10.2563 23.5643 9.59098 23.8175 8.79828C23.1622 9.18774 22.4346 9.46963 21.6617 9.62243C21.0423 8.96267 20.1591 8.55005 19.1832 8.55005C17.3082 8.55005 15.7879 10.0704 15.7879 11.9454C15.7879 12.2113 15.8183 12.4705 15.8762 12.7193C13.054 12.5781 10.5524 11.226 8.87759 9.17174C8.58522 9.67318 8.41808 10.2563 8.41808 10.8785C8.41808 12.0562 9.0166 13.0955 9.92845 13.7045C9.3713 13.6869 8.84835 13.5341 8.38994 13.2798V13.3222C8.38994 14.9678 9.56106 16.3397 11.1134 16.6525C10.8287 16.7297 10.5286 16.7716 10.2192 16.7716C10.0002 16.7716 9.78724 16.7501 9.57982 16.7104C10.0118 18.0591 11.2662 19.0411 12.7517 19.0686C11.59 19.9788 10.1259 20.5222 8.53502 20.5222C8.26031 20.5222 7.99001 20.5062 7.72467 20.4742C9.22733 21.4374 11.0119 22 12.9294 22C19.1744 22 22.5896 16.8262 22.5896 12.3398C22.5896 12.1925 22.5868 12.0458 22.5797 11.9007C23.2438 11.4208 23.8197 10.8228 24.2748 10.1421Z" fill="white" />
</svg>